<svg width="35" height="35" viewBox="0 0 35 35" fill="none" xmlns="http://www.w3.org/2000/svg">
<g clip-path="url(#clip0_7_25)">
<path d="M24.115 35V21.455H28.6514L29.33 16.1894H24.115V12.8294C24.115 11.305 24.5389 10.2647 26.7244 10.2647H29.5128V5.55528C28.1629 5.41205 26.8063 5.34259 25.4489 5.34722C21.4297 5.34722 18.6783 7.80111 18.6783 12.3083V16.1894H14.1322V21.455H18.6783V35H1.94444C1.42875 35 0.934169 34.7951 0.569514 34.4305C0.204861 34.0659 0 33.5712 0 33.0556V1.94444C0 1.42875 0.204861 0.934169 0.569514 0.569514C0.934169 0.204861 1.42875 0 1.94444 0H33.0556C33.5712 0 34.0659 0.204861 34.4305 0.569514C34.7951 0.934169 35 1.42875 35 1.94444V33.0556C35 33.5712 34.7951 34.0659 34.4305 34.4305C34.0659 34.7951 33.5712 35 33.0556 35H24.115Z" fill="white"/>
</g>
<defs>
<clipPath id="clip0_7_25">
<rect width="35" height="35" rx="10" fill="white"/>
</clipPath>
</defs>
</svg>
