<svg width="35" height="35" viewBox="0 0 35 35" fill="none" xmlns="http://www.w3.org/2000/svg">
<g clip-path="url(#clip0_7_27)">
<path fill-rule="evenodd" clip-rule="evenodd" d="M3.5 0H31.5C33.4331 0 35 1.56688 35 3.5V31.5C35 33.4331 33.4331 35 31.5 35H3.5C1.56688 35 0 33.4331 0 31.5V3.5C0 1.56688 1.56688 0 3.5 0Z" fill="white"/>
<path fill-rule="evenodd" clip-rule="evenodd" d="M21.9772 32.2C23.0422 32.2 23.9056 31.3436 23.9056 30.2873C23.9056 29.231 23.0422 28.3745 21.9772 28.3745H21.6867C22.7517 28.3745 23.6151 29.231 23.6151 30.2873C23.6151 31.3436 22.7517 32.2 21.6867 32.2H21.9772Z" fill="#BC2328"/>
<path fill-rule="evenodd" clip-rule="evenodd" d="M21.6604 28.3745H21.3699C20.3049 28.3745 19.4414 29.231 19.4414 30.2873C19.4414 31.3436 20.3049 32.2 21.3699 32.2H21.6604C20.5953 32.2 19.7319 31.3436 19.7319 30.2873C19.7319 29.231 20.5953 28.3745 21.6604 28.3745Z" fill="#BC2328"/>
<path d="M21.6735 31.2173C22.1915 31.2173 22.6114 30.801 22.6114 30.2873C22.6114 29.7737 22.1915 29.3573 21.6735 29.3573C21.1556 29.3573 20.7357 29.7737 20.7357 30.2873C20.7357 30.801 21.1556 31.2173 21.6735 31.2173Z" fill="white"/>
<path fill-rule="evenodd" clip-rule="evenodd" d="M7.48475 27.51C7.21703 27.51 7 27.727 7 27.9948C7 28.2625 7.21703 28.4795 7.48475 28.4795H7.56784C7.88145 28.4795 8.13568 28.7337 8.13568 29.0474V31.6058C8.13568 31.9195 8.39 32.1738 8.70373 32.1738C9.01746 32.1738 9.27178 31.9195 9.27178 31.6058V29.0397C9.27178 28.7448 9.51086 28.5057 9.80578 28.5057H9.83222C10.049 28.5057 10.2409 28.3654 10.3066 28.1589C10.4088 27.8378 10.1692 27.51 9.83222 27.51H7.48475ZM16.7829 27.51C16.5151 27.51 16.2981 27.727 16.2981 27.9948C16.2981 28.2625 16.5151 28.4795 16.7829 28.4795H16.8659C17.1795 28.4795 17.4338 28.7337 17.4338 29.0474V31.6058C17.4338 31.9195 17.6881 32.1738 18.0018 32.1738C18.3156 32.1738 18.5699 31.9195 18.5699 31.6058V29.0397C18.5699 28.7448 18.809 28.5057 19.1039 28.5057H19.1303C19.3471 28.5057 19.539 28.3654 19.6047 28.1589C19.7069 27.8378 19.4673 27.51 19.1303 27.51H16.7829ZM10.7247 28.0602C10.7247 27.7564 10.9726 27.51 11.279 27.51C11.5856 27.51 11.8338 27.7564 11.8338 28.0602C11.8338 28.364 11.5857 28.6104 11.279 28.6104C10.9726 28.6103 10.7247 28.364 10.7247 28.0602ZM10.7247 29.5581C10.7247 29.2518 10.973 29.0035 11.2792 29.0035C11.5855 29.0035 11.8338 29.2518 11.8338 29.5581V31.6193C11.8338 31.9256 11.5855 32.1738 11.2792 32.1738C10.973 32.1738 10.7247 31.9256 10.7247 31.6193V29.5581ZM12.8641 27.51C12.5577 27.51 12.3094 27.7584 12.3094 28.0648V31.6191C12.3094 31.9255 12.5577 32.1738 12.8641 32.1738C13.1705 32.1738 13.4189 31.9255 13.4189 31.6191V31.0984C13.4189 31.0158 13.4536 30.9369 13.5145 30.8811C13.6458 30.7608 13.8529 30.7834 13.9551 30.9293L14.699 31.9913C14.7906 32.1221 14.9403 32.2 15.1 32.2C15.4947 32.2 15.7271 31.7567 15.5026 31.432L14.7594 30.3576C14.5953 30.1204 14.6265 29.7994 14.8332 29.5982L15.0482 29.389C15.3498 29.0955 15.142 28.5841 14.7212 28.5841C14.5975 28.5841 14.4788 28.633 14.391 28.7201L14.3656 28.7452C14.015 29.093 13.4189 28.8447 13.4189 28.3509V28.0648C13.4189 27.7584 13.1705 27.51 12.8641 27.51ZM24.83 27.51C24.5236 27.51 24.2752 27.7584 24.2752 28.0648V31.619C24.2752 31.9254 24.5236 32.1738 24.83 32.1738C25.1364 32.1738 25.3848 31.9254 25.3848 31.619V31.0984C25.3848 31.0157 25.4195 30.9369 25.4804 30.8811C25.6116 30.7608 25.8188 30.7834 25.9209 30.9292L26.6651 31.9913C26.7567 32.1221 26.9064 32.2 27.066 32.2C27.4609 32.2 27.6933 31.7566 27.4687 31.4319L26.7256 30.3576C26.5615 30.1204 26.5927 29.7994 26.7994 29.5982L27.0144 29.389C27.316 29.0955 27.1082 28.5841 26.6874 28.5841C26.5637 28.5841 26.445 28.633 26.3572 28.7201L26.3318 28.7452C25.9811 29.0931 25.3848 28.8447 25.3848 28.3507V28.0648C25.3848 27.7584 25.1364 27.51 24.83 27.51Z" fill="#BC2328"/>
<path fill-rule="evenodd" clip-rule="evenodd" d="M22.5634 15.1961C22.5634 13.5931 24.4407 12.553 26.0074 12.8925C27.0595 13.1204 27.9999 12.2322 27.9999 11.1557V9.72057C27.9999 9.43625 27.7688 9.20829 27.4857 9.18181C27.16 9.15134 26.8582 9.39427 26.8582 9.72145V10.7817C26.8582 11.5404 26.2398 12.1661 25.4891 12.0561C25.2911 12.0271 25.0952 11.9919 24.9014 11.9508C23.3334 11.6174 21.4217 12.6434 21.4217 14.2465V18.3736C21.4217 22.3541 18.1933 25.5807 14.211 25.5807C13.6838 25.5807 13.3594 26.2714 13.8756 26.3787C14.3523 26.4779 14.8463 26.53 15.3524 26.53C19.335 26.53 22.5635 23.3034 22.5635 19.3228L22.5634 15.1961ZM21.7571 4.74766C21.9582 5.27369 22.6145 4.81152 22.5634 4.25069V4.24309C22.5634 3.97033 22.3423 3.74921 22.0695 3.74921C21.7626 3.74921 21.5288 4.02704 21.6142 4.32179C21.6561 4.46631 21.7038 4.60836 21.7571 4.74766ZM11.2346 19.8087C11.4645 20.2786 12.0419 19.8347 12.0427 19.3115C12.0427 17.4909 13.5194 16.0149 15.3412 16.0149C15.8445 16.0145 16.3418 15.6561 16.3418 15.1529V12.7223C16.3418 12.4133 16.1137 12.1489 15.8053 12.1298C15.4697 12.1089 15.2005 12.3863 15.2005 12.7226V14.2033C15.2005 14.7068 14.703 15.0653 14.1995 15.0657C12.3777 15.0657 10.9011 16.5417 10.9011 18.3624C10.9011 18.8812 11.021 19.372 11.2346 19.8087Z" fill="black"/>
<path fill-rule="evenodd" clip-rule="evenodd" d="M21.4217 14.2465C21.4217 12.6434 23.3334 11.6174 24.9014 11.9508C24.9909 11.9698 25.0807 11.9875 25.1711 12.0039C26.0927 12.1716 26.8582 11.3961 26.8582 10.4594C26.8582 9.65874 26.2818 8.99182 25.5654 8.63439C25.1092 8.40681 24.6894 8.11733 24.3169 7.77698C24.0779 7.55859 23.8282 7.35112 23.5698 7.156C22.8277 6.59554 22.2335 5.85005 21.8557 4.98814C21.5545 4.30113 20.9343 3.74921 20.1842 3.74921C19.3311 3.74921 18.6396 4.44074 18.6396 5.2938V19.3227C18.6332 21.1382 17.159 22.6082 15.3411 22.6082C15.0902 22.6082 14.8459 22.5802 14.6111 22.5272C13.1343 22.1938 11.7687 21.0566 11.1691 19.6665C10.9965 19.2665 10.901 18.8256 10.901 18.3624C10.901 16.5417 12.3775 15.0657 14.1994 15.0657C14.7028 15.0657 15.2004 14.7067 15.2004 14.2033V13.4443C15.2004 12.7159 14.5965 12.118 13.8833 12.2655C10.6053 12.9436 8.14156 15.8457 8.14156 19.3228C8.14156 20.9146 8.65757 22.3857 9.53167 23.5781C9.9361 24.1297 10.4725 24.5759 11.0889 24.8723C12.0336 25.3264 13.0926 25.5808 14.211 25.5808C18.1933 25.5808 21.4217 22.3541 21.4217 18.3737V14.2465Z" fill="#BC2328"/>
<path fill-rule="evenodd" clip-rule="evenodd" d="M26.4143 8.9718C26.6402 9.0403 26.8582 8.8615 26.8582 8.62548C26.8582 8.42273 26.6919 8.25784 26.4896 8.2444C26.064 8.21614 25.7765 8.75216 26.1785 8.89438C26.2565 8.92194 26.3351 8.94776 26.4143 8.9718ZM21.0296 3.74919C21.2654 3.74919 21.4433 3.53627 21.4217 3.30147C21.4217 3.02451 21.1972 2.79999 20.9202 2.79999H19.4597C18.3762 2.79999 17.4978 3.67839 17.4978 4.76195V18.3736C17.4915 20.189 16.0174 21.659 14.1994 21.659C13.8235 21.659 13.5567 22.1101 13.8944 22.275C14.3312 22.4884 14.8221 22.6082 15.3411 22.6082C17.1588 22.6082 18.6332 21.1382 18.6396 19.3226V5.0465C18.6396 4.33001 19.2204 3.74919 19.9369 3.74919H21.0296ZM14.7335 12.142C14.9922 12.12 15.2005 11.9097 15.2005 11.6501C15.2005 11.4116 15.0244 11.208 14.7867 11.1893C14.5953 11.1742 14.4033 11.1667 14.2111 11.1668C10.2284 11.1668 7 14.3935 7 18.3736C7 18.8797 7.0522 19.3737 7.15152 19.8504C7.29252 20.5271 8.1417 20.0139 8.1417 19.3226C8.1417 15.5509 11.0407 12.4557 14.7335 12.142Z" fill="black"/>
<path fill-rule="evenodd" clip-rule="evenodd" d="M21.6866 32.2C22.7515 32.2 23.6151 31.3436 23.6151 30.2873C23.6151 29.231 22.7515 28.3745 21.6866 28.3745H21.6602C20.5953 28.3745 19.7319 29.231 19.7319 30.2873C19.7319 31.3436 20.5953 32.2 21.6602 32.2H21.6866ZM20.7357 30.2873C20.7357 29.7735 21.1557 29.3573 21.6737 29.3573C22.1913 29.3573 22.6113 29.7735 22.6113 30.2873C22.6113 30.8011 22.1913 31.2176 21.6737 31.2176C21.1557 31.2175 20.7357 30.8011 20.7357 30.2873Z" fill="#BC2328"/>
</g>
<defs>
<clipPath id="clip0_7_27">
<rect width="35" height="35" rx="10" fill="white"/>
</clipPath>
</defs>
</svg>
