<svg width="35" height="35" viewBox="0 0 35 35" fill="none" xmlns="http://www.w3.org/2000/svg">
<g clip-path="url(#clip0_7_23)">
<path d="M34.2002 5.46438C35 9.3625 35 17.5 35 17.5C35 17.5 35 25.6375 34.2002 29.5356C33.7557 31.6903 32.4555 33.3856 30.8088 33.9588C27.818 35 17.5 35 17.5 35C17.5 35 7.18725 35 4.19125 33.9588C2.5375 33.3769 1.239 31.6838 0.79975 29.5356C5.21541e-08 25.6375 0 17.5 0 17.5C0 17.5 5.21541e-08 9.3625 0.79975 5.46438C1.24425 3.30969 2.5445 1.61437 4.19125 1.04125C7.18725 -3.91155e-07 17.5 0 17.5 0C17.5 0 27.818 -3.91155e-07 30.8088 1.04125C32.4625 1.62313 33.761 3.31625 34.2002 5.46438ZM14 25.1562L24.5 17.5L14 9.84375V25.1562Z" fill="white"/>
</g>
<defs>
<clipPath id="clip0_7_23">
<rect width="35" height="35" rx="10" fill="white"/>
</clipPath>
</defs>
</svg>
